<svg xmlns="http://www.w3.org/2000/svg" width="600" height="900" viewBox="0 0 600 900">
  <defs>
    <linearGradient id="bg" x1="0" y1="0" x2="1" y2="1">
      <stop offset="0" stop-color="#5a3a1e"/>
      <stop offset="1" stop-color="#351812"/>
    </linearGradient>
    <pattern id="dots" width="20" height="20" patternUnits="userSpaceOnUse">
      <circle cx="2" cy="2" r="1.4" fill="#fff7e8" opacity="0.10"/>
    </pattern>
  </defs>
  <rect width="600" height="900" fill="url(#bg)"/>
  <rect width="600" height="900" fill="url(#dots)"/>
  <circle cx="300" cy="330" r="200" fill="#ffb43e" opacity="0.4"/>
  <g stroke="#12101c" stroke-width="6" fill="none">
    <rect x="140" y="120" width="320" height="400" rx="12" fill="#c96b22"/>
    <path d="M140 300h320M190 120v400M250 120v400M310 120v400M370 120v400M430 120v400" stroke-width="4"/>
  </g>
  <g fill="#ffe36e">
    <rect x="160" y="150" width="26" height="34" rx="4"/>
    <rect x="220" y="150" width="26" height="34" rx="4"/>
    <rect x="280" y="150" width="26" height="34" rx="4"/>
    <rect x="340" y="150" width="26" height="34" rx="4"/>
    <rect x="400" y="150" width="26" height="34" rx="4"/>
    <rect x="160" y="220" width="26" height="34" rx="4"/>
    <rect x="280" y="220" width="26" height="34" rx="4"/>
    <rect x="400" y="220" width="26" height="34" rx="4"/>
  </g>
  <g stroke="#12101c" stroke-width="6">
    <ellipse cx="300" cy="360" rx="74" ry="56" fill="#ffb43e"/>
    <circle cx="206" cy="298" r="28" fill="#ffb43e"/>
    <circle cx="252" cy="266" r="28" fill="#ffb43e"/>
    <circle cx="348" cy="266" r="28" fill="#ffb43e"/>
    <circle cx="394" cy="298" r="28" fill="#ffb43e"/>
    <circle cx="300" cy="352" r="16" fill="#12101c"/>
  </g>
  <rect x="20" y="20" width="560" height="860" rx="26" fill="none" stroke="#fff7e8" stroke-width="5" stroke-dasharray="10 14"/>
  <text x="300" y="640" font-family="Nunito Sans, Arial, sans-serif" font-weight="900" font-size="44" fill="#fff7e8" text-anchor="middle" letter-spacing="3">THE SECRET LIFE</text>
  <text x="300" y="692" font-family="Nunito Sans, Arial, sans-serif" font-weight="900" font-size="44" fill="#fff7e8" text-anchor="middle" letter-spacing="3">OF PETS</text>
  <text x="300" y="742" font-family="Nunito Sans, Arial, sans-serif" font-weight="800" font-size="26" fill="#ffb43e" text-anchor="middle">2016</text>
  <text x="300" y="860" font-family="Nunito Sans, Arial, sans-serif" font-size="16" fill="#a9adc4" text-anchor="middle">original placeholder art</text>
</svg>
