<svg xmlns="http://www.w3.org/2000/svg" width="600" height="900" viewBox="0 0 600 900">
  <defs>
    <linearGradient id="bg" x1="0" y1="0" x2="1" y2="1">
      <stop offset="0" stop-color="#4a3d1b"/>
      <stop offset="1" stop-color="#1b2033"/>
    </linearGradient>
    <pattern id="dots" width="20" height="20" patternUnits="userSpaceOnUse">
      <circle cx="2" cy="2" r="1.4" fill="#fff7e8" opacity="0.10"/>
    </pattern>
  </defs>
  <rect width="600" height="900" fill="url(#bg)"/>
  <rect width="600" height="900" fill="url(#dots)"/>
  <circle cx="300" cy="330" r="200" fill="#ffd75e" opacity="0.45"/>
  <g stroke="#12101c" stroke-width="7" fill="none" stroke-linejoin="round">
    <rect x="200" y="240" width="130" height="130" rx="16" fill="#ffd75e"/>
    <rect x="270" y="240" width="130" height="130" rx="16" fill="#ffb347"/>
    <rect x="200" y="310" width="130" height="130" rx="16" fill="#ffe36e"/>
    <rect x="270" y="310" width="130" height="130" rx="16" fill="#ff8b5e"/>
  </g>
  <g fill="#0b1026">
    <rect x="235" y="270" width="30" height="22" rx="5"/>
    <rect x="305" y="270" width="30" height="22" rx="5"/>
    <rect x="235" y="342" width="30" height="22" rx="5"/>
    <rect x="305" y="342" width="30" height="22" rx="5"/>
  </g>
  <path d="M170 380a130 70 0 0 0 260 0" fill="none" stroke="#12101c" stroke-width="12" stroke-linecap="round"/>
  <g stroke="#12101c" stroke-width="7" fill="none" stroke-linecap="round">
    <path d="M180 460l-40 10M420 460l40 10"/>
    <path d="M220 500l-30 20M380 500l30 20"/>
  </g>
  <g fill="#fff7e8">
    <path d="M110 130l6 14 15 2-11 11 3 15-13-7-13 7 3-15-11-11 15-2z"/>
    <path d="M490 520l6 14 15 2-11 11 3 15-13-7-13 7 3-15-11-11 15-2z"/>
  </g>
  <rect x="20" y="20" width="560" height="860" rx="26" fill="none" stroke="#fff7e8" stroke-width="5" stroke-dasharray="10 14"/>
  <text x="300" y="630" font-family="Nunito Sans, Arial, sans-serif" font-weight="900" font-size="52" fill="#fff7e8" text-anchor="middle" letter-spacing="4">WALL·E</text>
  <text x="300" y="684" font-family="Nunito Sans, Arial, sans-serif" font-weight="800" font-size="26" fill="#ffd75e" text-anchor="middle">2008</text>
  <text x="300" y="860" font-family="Nunito Sans, Arial, sans-serif" font-size="16" fill="#a9adc4" text-anchor="middle">original placeholder art</text>
</svg>
